<svg xmlns="http://www.w3.org/2000/svg" viewBox="0 0 24 24" width="24px" height="24px" fill="red">
    <path d="M12 .297C5.37.297 0 5.67 0 12.3c0 5.304 3.438 9.8 8.207 11.387.6.112.82-.26.82-.577v-2.09c-3.338.725-4.043-1.415-4.043-1.415-.546-1.386-1.333-1.756-1.333-1.756-1.089-.744.084-.729.084-.729 1.203.084 1.836 1.235 1.836 1.235 1.07 1.833 2.809 1.304 3.495.997.108-.776.418-1.304.762-1.605-2.665-.303-5.466-1.334-5.466-5.933 0-1.311.467-2.381 1.235-3.222-.123-.303-.535-1.523.117-3.176 0 0 1.008-.322 3.3 1.23a11.455 11.455 0 013.003-.404c1.02.005 2.044.138 3.003.404 2.292-1.552 3.298-1.23 3.298-1.23.653 1.653.241 2.873.118 3.176.77.84 1.235 1.91 1.235 3.222 0 4.61-2.803 5.627-5.475 5.923.431.372.814 1.102.814 2.222v3.293c0 .318.22.694.824.576C20.565 22.095 24 17.605 24 12.3c0-6.63-5.373-12.003-12-12.003z"/>
</svg>
