<svg xmlns="http://www.w3.org/2000/svg" viewBox="0 0 24 24" width="24px" height="24px" fill="red">
    <path d="M22.23 0H1.77A1.77 1.77 0 000 1.77v20.45A1.77 1.77 0 001.77 24h20.45A1.77 1.77 0 0024 22.23V1.77A1.77 1.77 0 0022.23 0zM7.06 20.45H3.56V9h3.5v11.45zM5.31 7.67a2.05 2.05 0 01-2.05-2.05 2.05 2.05 0 012.05-2.05c1.13 0 2.05.92 2.05 2.05a2.05 2.05 0 01-2.05 2.05zm15.14 12.78h-3.5v-5.57c0-1.33-.02-3.05-1.86-3.05-1.86 0-2.14 1.45-2.14 2.95v5.67h-3.5V9h3.36v1.57h.05c.47-.88 1.62-1.8 3.34-1.8 3.57 0 4.23 2.35 4.23 5.4v6.28z"/>
</svg>
